<?xml version="1.0" standalone="no"?><!DOCTYPE svg PUBLIC "-//W3C//DTD SVG 1.1//EN" "http://www.w3.org/Graphics/SVG/1.1/DTD/svg11.dtd"><svg class="icon" width="200px" height="200.00px" viewBox="0 0 1024 1024" version="1.1" xmlns="http://www.w3.org/2000/svg"><path fill="#333333" d="M390.446278 755.828248C363.4489 755.828248 341.693734 777.583415 341.693734 804.580789 341.693734 831.578167 363.4489 853.333333 390.446278 853.333333 417.443656 853.333333 439.198822 831.578167 439.198822 804.580789 439.198822 777.583415 417.443656 755.828248 390.446278 755.828248L390.446278 755.828248 390.446278 755.828248ZM731.84514 755.828248C704.847763 755.828248 683.092596 777.583415 683.092596 804.580789 683.092596 831.578167 704.847763 853.333333 731.84514 853.333333 758.842515 853.333333 780.597681 831.578167 780.597681 804.580789 780.597681 777.583415 758.71146 755.828248 731.84514 755.828248L731.84514 755.828248 731.84514 755.828248ZM780.204517 731.451976 384.155628 731.451976C349.032827 731.451976 318.103794 703.668268 313.910028 668.1523L272.496577 377.078647 249.037691 241.043323C247.596084 229.117297 236.7185 219.419211 226.234082 219.419211L195.042939 219.419211C181.544251 219.419211 170.666667 208.541627 170.666667 195.042939 170.666667 181.54425 181.54425 170.666667 195.042939 170.666667L226.103027 170.666667C261.618993 170.666667 292.941191 198.450374 297.266014 233.96634L320.724899 369.477441 362.269406 661.861649C363.579959 673.132401 373.933322 682.699431 384.155628 682.699431L780.204517 682.699431C793.703206 682.699431 804.580789 693.577015 804.580789 707.075703 804.580789 720.574392 793.703206 731.451976 780.204517 731.451976L780.204517 731.451976ZM414.691495 633.946887C401.979139 633.946887 391.363666 624.248801 390.446278 611.405387 389.397839 598.037757 399.489089 586.242785 412.987778 585.325397L743.771163 560.949125C755.959299 560.81807 766.181608 551.382095 767.492161 540.504511L805.891342 320.855955C806.80873 312.730531 804.580789 303.687721 799.731746 298.183401 796.586421 294.64491 792.654763 292.810137 788.06783 292.810137L365.676841 292.810137C352.178152 292.810137 341.300569 281.932553 341.300569 268.433865 341.300569 254.935176 352.309207 243.795483 365.676841 243.795483L787.80572 243.795483C806.415561 243.795483 823.583795 251.527742 836.034045 265.55065 850.319063 281.670443 856.740768 304.211942 853.988608 327.801882L815.589427 547.581495C811.395663 581.786907 780.597681 609.570615 745.474884 609.570615L416.526271 633.815832C415.870993 633.815832 415.215715 633.946887 414.691495 633.946887L414.691495 633.946887Z" /></svg>