<?xml version="1.0" standalone="no"?><!DOCTYPE svg PUBLIC "-//W3C//DTD SVG 1.1//EN" "http://www.w3.org/Graphics/SVG/1.1/DTD/svg11.dtd"><svg class="icon" width="200px" height="200.00px" viewBox="0 0 1024 1024" version="1.1" xmlns="http://www.w3.org/2000/svg"><path fill="#333333" d="M219.5 339.3c-63.6 17.5-110.6 77-110.6 147.4 0 40.7 15.9 79 44.9 108 16.9 17 36.9 29.4 58.7 36.8 1.4 35.9 9.3 70.8 23.6 103.8 15.2 35 37 66.6 64.7 93.6 27.7 27 59.9 48.2 95.8 63 35.7 14.8 73.6 22.5 112.7 23.1h4.5c53.9-1 97.3-45.1 97.3-99.2 0-55.6-45.9-100.6-101.8-99.2-52.7 1.4-95.3 44.3-96.5 97-0.2 11.3 1.4 22.3 4.7 32.5-30.1-12.1-57.8-30.1-81.5-53.2-47.2-46.1-73.3-107.3-73.3-172.4v-217c0-65.1 26-126.3 73.3-172.4 47.5-46.2 110.6-71.7 177.9-71.7 67.2 0 130.4 25.5 177.9 71.8 47.2 46.1 73.3 107.3 73.3 172.4l-1.4 208.1c-0.2 16.1 14.6 28.1 30.4 24.8 28.5-5.9 54.8-20.2 76.1-41.6 29-29.1 44.9-67.4 44.9-108 0-69-45-127.5-106.6-146.4-4-17.6-9.6-35-16.9-51.8-15.2-35-37-66.6-64.7-93.6-27.7-27-59.9-48.2-95.8-63-37.2-15.3-76.5-23.1-117.2-23.1-40.6 0-80.1 7.8-117.2 23.1-35.8 14.8-68.1 36-95.8 63-27.7 27-49.5 58.5-64.7 93.6-7.2 16.4-12.8 33.3-16.7 50.6m615.1 219.9c-5.9 5.9-12.3 10.9-19.1 15.2V403.6c0-1.8-0.1-3.5-0.1-5.3 29.5 17.8 49.4 50.8 49.4 88.6-0.1 27.1-10.8 52.9-30.2 72.3M510.3 864.7c-26.1-0.9-47.2-22.4-47.2-48.8 0-26.9 21.9-48.8 48.8-48.8s48.8 21.9 48.8 48.8c0 26.8-21.6 48.5-48.2 48.8h-2.2M189.4 559.2c-19.4-19.4-30.2-45.2-30.2-72.4 0-39.4 21.6-73.6 53.1-90.7-0.1 2.4-0.1 5-0.1 7.4v173c-8.1-4.5-15.8-10.3-22.8-17.3m0 0z" /></svg>